<svg width="69" height="38" viewBox="0 0 69 38" fill="none" xmlns="http://www.w3.org/2000/svg">
<g opacity="0.1">
<path d="M9.23472 37.9939C6.5074 37.9939 4.36832 37.1561 2.8175 35.4745C1.26667 33.793 0.488281 31.4816 0.488281 28.5344V12.1586C0.488281 11.9091 0.690305 11.707 0.939864 11.707H9.0624C9.31196 11.707 9.51399 11.9091 9.51399 12.1586V25.6348C9.51399 26.9955 9.84673 28.0591 10.5122 28.8196C11.1777 29.5802 12.0631 29.9605 13.1742 29.9605C14.2853 29.9605 15.1885 29.5802 15.8837 28.8196C16.5789 28.0591 16.9294 26.9955 16.9294 25.6348V12.1586C16.9294 11.9091 17.1315 11.707 17.381 11.707H25.5036C25.7531 11.707 25.9552 11.9091 25.9552 12.1586V36.9659C25.9552 37.2155 25.7531 37.4175 25.5036 37.4175H17.381C17.1315 37.4175 16.9294 37.2155 16.9294 36.9659V35.1299C16.9294 34.714 16.4244 34.5238 16.1392 34.8269C14.1784 36.9362 11.8729 37.9879 9.22878 37.9879L9.23472 37.9939Z" fill="black"/>
<path d="M38.1826 37.9932C35.6454 37.9932 33.5717 37.2861 31.9555 35.8779C30.3393 34.4697 29.5312 32.497 29.5312 29.9598C29.5312 27.4226 30.4344 25.3667 32.2407 23.9704C34.0471 22.5741 36.5011 21.8789 39.6087 21.8789C41.8606 21.8789 43.9165 22.2116 45.7882 22.8771V22.4493C45.7882 19.6625 44.077 18.2662 40.6544 18.2662C38.5035 18.2662 36.3109 18.6762 34.0768 19.5021C33.8035 19.6031 33.5064 19.4546 33.4232 19.1812L31.8486 13.7623C31.7773 13.5127 31.9021 13.2453 32.1457 13.1562C35.2592 11.9381 38.5867 11.332 42.134 11.332C46.5725 11.332 49.8346 12.3778 51.9262 14.4693C53.7622 16.2757 54.6832 19.003 54.6832 22.6454V36.9296C54.6832 37.2029 54.4574 37.4287 54.1841 37.4287H46.2457C45.9724 37.4287 45.7466 37.2029 45.7466 36.9296V35.9611C45.7466 35.5273 45.2356 35.3075 44.9088 35.5986C43.1025 37.197 40.8624 37.9992 38.1886 37.9992L38.1826 37.9932ZM41.415 32.3365C42.746 32.3365 43.8215 31.9503 44.6474 31.1719C45.4733 30.3936 45.8833 29.3716 45.8833 28.1059V27.2622C45.8833 27.0542 45.7585 26.8641 45.5624 26.7928C44.5998 26.4363 43.5303 26.2521 42.3657 26.2521C41.0644 26.2521 40.0543 26.5432 39.3235 27.1315C38.5926 27.7197 38.2302 28.5159 38.2302 29.532C38.2302 30.3876 38.5213 31.0709 39.1095 31.576C39.6978 32.0811 40.4643 32.3365 41.415 32.3365Z" fill="black"/>
<path d="M59.4805 36.5203V12.6043C59.4805 12.1051 59.8845 11.707 60.3777 11.707H67.609C68.1081 11.707 68.5062 12.1111 68.5062 12.6043V36.5203C68.5062 37.0194 68.1021 37.4175 67.609 37.4175H60.3777C59.8786 37.4175 59.4805 37.0135 59.4805 36.5203Z" fill="black"/>
<path d="M64.5667 0.0908203H63.4259C61.2469 0.0908203 59.4805 1.85724 59.4805 4.03622C59.4805 6.21521 61.2469 7.98163 63.4259 7.98163H64.5667C66.7457 7.98163 68.5121 6.21521 68.5121 4.03622C68.5121 1.85724 66.7457 0.0908203 64.5667 0.0908203Z" fill="black"/>
</g>
</svg>
