<svg width="30" height="30" viewBox="0 0 30 30" fill="none" xmlns="http://www.w3.org/2000/svg">
<path d="M15 27.5C21.8875 27.5 27.5 21.8875 27.5 15C27.5 8.1125 21.8875 2.5 15 2.5C8.1125 2.5 2.49999 8.1125 2.49999 15C2.49999 21.8875 8.11249 27.5 15 27.5ZM15.9375 20C15.9375 20.5125 15.5125 20.9375 15 20.9375C14.4875 20.9375 14.0625 20.5125 14.0625 20L14.0625 13.75C14.0625 13.2375 14.4875 12.8125 15 12.8125C15.5125 12.8125 15.9375 13.2375 15.9375 13.75L15.9375 20ZM13.85 9.525C13.9125 9.3625 14 9.2375 14.1125 9.1125C14.2375 9 14.375 8.9125 14.525 8.85C14.675 8.7875 14.8375 8.75 15 8.75C15.1625 8.75 15.325 8.7875 15.475 8.85C15.625 8.9125 15.7625 9 15.8875 9.1125C16 9.2375 16.0875 9.3625 16.15 9.525C16.2125 9.675 16.25 9.8375 16.25 10C16.25 10.1625 16.2125 10.325 16.15 10.475C16.0875 10.625 16 10.7625 15.8875 10.8875C15.7625 11 15.625 11.0875 15.475 11.15C15.175 11.275 14.825 11.275 14.525 11.15C14.375 11.0875 14.2375 11 14.1125 10.8875C14 10.7625 13.9125 10.625 13.85 10.475C13.7875 10.325 13.75 10.1625 13.75 10C13.75 9.8375 13.7875 9.675 13.85 9.525Z" fill="#17293A" fill-opacity="0.24"/>
</svg>
